<svg xmlns="http://www.w3.org/2000/svg" id="a" width="1920" height="1080" viewBox="0 0 1920 1080"><rect x="0" y=".25" width="1920" height="1080" fill="#000" stroke-width="0"></rect><circle cx="1280.1393" cy="273.8446" r="1.25" fill="#a3bac3" stroke-width="0"></circle><circle cx="346.3553" cy="577.6815" r=".75" fill="#a3bac3" stroke-width="0"></circle><circle cx="172.6899" cy="746.9105" r="1.5" fill="#a3bac3" stroke-width="0"></circle><circle cx="27.6374" cy="358.1011" r="1.5" fill="#a3bac3" stroke-width="0"></circle><circle cx="1120.9459" cy="860.5473" r="1.5" fill="#a3bac3" stroke-width="0"></circle><circle cx="1697.6003" cy="227.61" r=".75" fill="#a3bac3" stroke-width="0"></circle><circle cx="869.6832" cy="637.6087" r="1.25" fill="#a3bac3" stroke-width="0"></circle><circle cx="120.5656" cy="1037.6869" r="1.75" fill="#a3bac3" stroke-width="0"></circle><circle cx="889.5405" cy="888.827" r=".75" fill="#a3bac3" stroke-width="0"></circle><circle cx="1014.986" cy="512.132" r="1.75" fill="#a3bac3" stroke-width="0"></circle><circle cx="1320.4809" cy="932.6982" r=".75" fill="#a3bac3" stroke-width="0"></circle><circle cx="319.072" cy="19.1147" r="1.5" fill="#a3bac3" stroke-width="0"></circle><circle cx="787.973" cy=".9351" r="1.25" fill="#a3bac3" stroke-width="0"></circle><circle cx="693.2359" cy="892.568" r="1.5" fill="#a3bac3" stroke-width="0"></circle><circle cx="671.2297" cy="1067.6191" r="1.25" fill="#a3bac3" stroke-width="0"></circle><circle cx="0" cy="428.656" r="2.5" fill="#a3bac3" stroke-width="0"></circle><circle cx="250.7904" cy="155.2624" r="1.75" fill="#a3bac3" stroke-width="0"></circle><circle cx="1538.3514" cy="79.7741" r="1.5" fill="#a3bac3" stroke-width="0"></circle><circle cx="789.223" cy="377.9705" r="1.5" fill="#a3bac3" stroke-width="0"></circle><circle cx="1678.2686" cy="888.4399" r="1.75" fill="#a3bac3" stroke-width="0"></circle><circle cx="1174.8978" cy="574.8256" r="1.5" fill="#a3bac3" stroke-width="0"></circle><circle cx="1093.8536" cy="246.3149" r="1.5" fill="#a3bac3" stroke-width="0"></circle><circle cx="1767.1678" cy="735.0698" r="1.5" fill="#a3bac3" stroke-width="0"></circle><circle cx="1855.5213" cy="879.9399" r="1.5" fill="#a3bac3" stroke-width="0"></circle><circle cx="1665.0328" cy="1032.0319" r="1.5" fill="#a3bac3" stroke-width="0"></circle><circle cx="1835.646" cy="526.3716" r="1.5" fill="#a3bac3" stroke-width="0"></circle><circle cx="111.1587" cy="194.8894" r="1.5" fill="#a3bac3" stroke-width="0"></circle><circle cx="484.0425" cy="171.7368" r=".75" fill="#a3bac3" stroke-width="0"></circle><circle cx="700.7178" cy="639.1087" r="1.5" fill="#a3bac3" stroke-width="0"></circle><circle cx="207.6622" cy="1079.7249" r="1.25" fill="#a3bac3" stroke-width="0"></circle><circle cx="1757.1374" cy="431.156" r="1" fill="#eaebed" stroke-width="0"></circle><circle cx="1424.1025" cy="403.7365" r="1" fill="#eaebed" stroke-width="0"></circle><circle cx="1820.762" cy="72.2921" r="1" fill="#eaebed" stroke-width="0"></circle><circle cx="1159.5847" cy="15.3738" r="1" fill="#eaebed" stroke-width="0"></circle><circle cx="1476.7268" cy="1061.6434" r="1" fill="#eaebed" stroke-width="0"></circle><circle cx="1697.6003" cy="601.0772" r="1" fill="#eaebed" stroke-width="0"></circle><ellipse cx="596.6178" cy="179.3946" rx=".9352" ry=".005" fill="#eaebed" stroke-width="0"></ellipse><circle cx="81.8108" cy="22.8557" r="1" fill="#eaebed" stroke-width="0"></circle><circle cx="112.1587" cy="491.4243" r="1" fill="#eaebed" stroke-width="0"></circle><circle cx="1322.3514" cy="98.2984" r="1" fill="#eaebed" stroke-width="0"></circle><circle cx="301.1408" cy="341.6338" r="1" fill="#eaebed" stroke-width="0"></circle><circle cx="1827.1041" cy="910.3514" r="1" fill="#eaebed" stroke-width="0"></circle><circle cx="1920.7859" cy="948.9006" r="1" fill="#eaebed" stroke-width="0"></circle><circle cx="1049.8919" cy="758.6475" r="1" fill="#eaebed" stroke-width="0"></circle><circle cx="1728.455" cy="1079.2309" r="1" fill="#eaebed" stroke-width="0"></circle><circle cx="1601.4163" cy="841.1217" r="1" fill="#eaebed" stroke-width="0"></circle><circle cx="973.1295" cy="1006.4932" r="1" fill="#eaebed" stroke-width="0"></circle><circle cx="421.7167" cy="805.5198" r="1" fill="#eaebed" stroke-width="0"></circle><circle cx="3.741" cy="963.3449" r="1" fill="#eaebed" stroke-width="0"></circle><circle cx="224.4268" cy="1004.6228" r="1" fill="#eaebed" stroke-width="0"></circle><circle cx="22.0259" cy="733.5524" r="1" fill="#eaebed" stroke-width="0"></circle><circle cx="738.9482" cy="1043.2984" r="1" fill="#eaebed" stroke-width="0"></circle><circle cx="646.6216" cy="273.8446" r=".75" fill="#eaebed" stroke-width="0"></circle><circle cx="1872.9748" cy="134.4889" r="1.5" fill="#a3bac3" stroke-width="0"></circle><circle cx="495.7631" cy="717.5203" r=".75" fill="#a3bac3" stroke-width="0"></circle><circle cx="1755.6374" cy=".7751" r="1.5" fill="#a3bac3" stroke-width="0"></circle><circle cx="553.2162" cy="457.4925" r="1.5" fill="#a3bac3" stroke-width="0"></circle><circle cx="960" cy="124.3053" r="1.25" fill="#a3bac3" stroke-width="0"></circle><circle cx="1857.0213" cy="401.4865" r="1.25" fill="#a3bac3" stroke-width="0"></circle><circle cx="1553.8588" cy="551.9004" r=".75" fill="#a3bac3" stroke-width="0"></circle><circle cx="1799.4344" cy="196.1394" r="1.25" fill="#a3bac3" stroke-width="0"></circle><circle cx="1383.0112" cy="721.2612" r="1.5" fill="#a3bac3" stroke-width="0"></circle><rect x="0" y=".25" width="1920" height="1080" fill="#000" opacity=".25" stroke-width="0"></rect></svg>